<?xml version="1.0" standalone="no"?>
<!DOCTYPE svg PUBLIC "-//W3C//DTD SVG 1.1//EN" "http://www.w3.org/Graphics/SVG/1.1/DTD/svg11.dtd">
<svg version="1.1" xmlns="http://www.w3.org/2000/svg" viewBox="0 0 128.58221435546875 122.29208374023438" width="385.74664306640625" height="366.8762512207031"><!-- svg-source:excalidraw --><metadata></metadata><defs><style class="style-fonts">
      </style></defs><g stroke-linecap="round" transform="translate(10 10) rotate(0 54.291107177734375 51.14604187011719)"><path d="M25.57 0 C41.81 -3.94, 62.51 -4.14, 83.01 0 C97.26 0.94, 111.25 7.68, 108.58 25.57 C110.95 38.49, 106.91 53.06, 108.58 76.72 C106.95 93.82, 103.17 102.37, 83.01 102.29 C65.41 102.77, 54.07 104, 25.57 102.29 C7.36 99.69, 1.76 92.93, 0 76.72 C-1.74 60.12, -2.33 36.95, 0 25.57 C0.39 9.1, 11.11 2.63, 25.57 0" stroke="none" stroke-width="0" fill="#1e1e1e"></path><path d="M25.57 0 C46.17 0.88, 70.66 2.03, 83.01 0 M25.57 0 C43.07 -0.54, 62.07 -0.45, 83.01 0 M83.01 0 C98.46 0.98, 107.9 9.34, 108.58 25.57 M83.01 0 C98.42 -0.42, 109.02 10.29, 108.58 25.57 M108.58 25.57 C109.6 41.84, 107.66 59.87, 108.58 76.72 M108.58 25.57 C107.8 46.52, 109.24 66.53, 108.58 76.72 M108.58 76.72 C109.36 93.72, 98.82 103.2, 83.01 102.29 M108.58 76.72 C108.85 93.73, 99.71 100.35, 83.01 102.29 M83.01 102.29 C68.73 101.55, 56.47 101.43, 25.57 102.29 M83.01 102.29 C69.34 103.32, 56.05 102.89, 25.57 102.29 M25.57 102.29 C6.93 101.73, -0.48 93.8, 0 76.72 M25.57 102.29 C9.75 101.36, -0.53 93.16, 0 76.72 M0 76.72 C-0.93 55.75, -0.67 35.79, 0 25.57 M0 76.72 C-0.46 62.53, 0.81 50.42, 0 25.57 M0 25.57 C-0.37 7.96, 10.09 -1.05, 25.57 0 M0 25.57 C2.13 10.4, 7.11 -0.44, 25.57 0" stroke="#1e1e1e" stroke-width="2" fill="none"></path></g><g transform="translate(37.34332275390625 54.06695556640625) rotate(0 19.940643310546875 6.3167877197265625)" stroke="none"><path fill="#ffffff" d="M -5.02,-0.91 Q -5.02,-0.91 -4.88,-2.21 -4.73,-3.51 -4.84,-5.84 -4.94,-8.16 -4.46,-11.34 -3.99,-14.51 -3.46,-16.95 -2.93,-19.39 -0.75,-20.68 1.43,-21.97 4.62,-20.67 7.81,-19.38 8.79,-17.14 9.77,-14.90 9.86,-12.74 9.96,-10.58 10.02,-8.41 10.08,-6.23 10.16,-3.56 10.24,-0.89 10.29,1.32 10.35,3.54 10.39,6.26 10.43,8.98 10.42,11.35 10.42,13.73 10.41,16.29 10.40,18.86 10.42,21.02 10.45,23.17 10.47,25.62 10.50,28.06 10.50,28.54 10.51,29.02 10.41,29.89 10.30,30.75 9.99,31.57 9.68,32.39 9.18,33.11 8.69,33.83 8.03,34.41 7.38,34.99 6.60,35.40 5.83,35.81 4.98,36.02 4.13,36.23 3.25,36.23 2.37,36.23 1.52,36.02 0.67,35.81 -0.09,35.40 -0.87,34.99 -1.52,34.41 -2.18,33.83 -2.67,33.11 -3.17,32.39 -3.48,31.57 -3.79,30.75 -3.90,29.88 -4.00,29.02 -3.96,26.69 -3.92,24.36 -4.27,21.20 -4.61,18.03 -4.65,15.32 -4.69,12.61 -4.68,9.87 -4.67,7.13 -4.67,4.73 -4.67,2.34 -4.67,-0.89 -4.68,-4.13 -4.63,-7.44 -4.58,-10.74 -4.56,-12.92 -4.55,-15.10 0.45,-18.39 5.46,-21.68 7.52,-20.33 9.57,-18.98 11.19,-17.28 12.81,-15.57 14.58,-12.73 16.34,-9.90 17.96,-8.25 19.59,-6.60 21.13,-4.86 22.67,-3.13 24.33,-1.71 25.99,-0.28 27.91,1.44 29.83,3.17 31.85,5.17 33.86,7.16 36.01,9.44 38.16,11.72 40.19,13.90 42.22,16.08 43.19,18.02 44.17,19.96 45.77,22.86 47.38,25.77 47.39,27.00 47.40,28.23 47.01,29.40 46.63,30.57 45.89,31.56 45.15,32.55 44.14,33.24 43.12,33.94 41.94,34.28 40.75,34.62 39.52,34.56 38.29,34.50 37.15,34.06 36.00,33.61 35.06,32.82 34.11,32.03 33.47,30.98 32.83,29.93 32.55,28.73 32.28,27.53 32.40,26.30 32.53,25.08 33.04,23.95 33.54,22.83 34.39,21.93 35.23,21.03 36.31,20.45 37.39,19.86 38.61,19.65 39.82,19.45 41.04,19.64 42.25,19.83 43.35,20.40 44.44,20.97 45.29,21.85 46.15,22.74 46.67,23.86 47.20,24.97 47.34,26.19 47.48,27.42 47.22,28.62 46.97,29.82 46.34,30.88 45.71,31.94 44.78,32.75 43.85,33.55 42.71,34.02 41.57,34.48 40.34,34.56 39.11,34.63 37.92,34.31 36.73,33.99 35.71,33.31 34.68,32.62 33.93,31.65 33.18,30.67 32.77,29.51 32.37,28.34 32.37,28.34 32.37,28.35 31.62,27.76 30.86,27.18 29.68,24.99 28.50,22.80 26.54,20.81 24.59,18.81 22.98,16.98 21.37,15.15 19.74,13.72 18.11,12.29 15.72,10.08 13.33,7.87 11.28,5.91 9.24,3.95 7.61,1.67 5.97,-0.60 4.41,-2.67 2.86,-4.73 1.37,-6.83 -0.11,-8.92 4.67,-9.83 9.46,-10.74 9.51,-7.44 9.56,-4.13 9.56,-0.90 9.55,2.33 9.55,4.72 9.56,7.10 9.58,9.79 9.61,12.47 9.69,15.61 9.76,18.75 10.10,21.55 10.43,24.36 10.47,26.69 10.51,29.02 10.41,29.88 10.30,30.75 9.99,31.57 9.68,32.39 9.18,33.11 8.69,33.83 8.03,34.41 7.38,34.99 6.60,35.40 5.83,35.81 4.98,36.02 4.13,36.23 3.25,36.23 2.38,36.23 1.53,36.02 0.68,35.81 -0.09,35.40 -0.87,34.99 -1.52,34.41 -2.18,33.83 -2.67,33.11 -3.17,32.39 -3.48,31.57 -3.79,30.75 -3.90,29.89 -4.00,29.02 -3.99,27.70 -3.97,26.37 -3.95,24.20 -3.92,22.03 -3.91,19.15 -3.90,16.28 -3.91,13.77 -3.91,11.26 -3.90,8.53 -3.88,5.81 -3.82,2.95 -3.76,0.08 -3.68,-2.33 -3.61,-4.75 -3.55,-7.08 -3.49,-9.41 -2.51,-11.72 -1.53,-14.03 2.93,-12.50 7.40,-10.97 6.92,-8.85 6.44,-6.73 6.05,-4.18 5.67,-1.62 5.34,-0.35 5.02,0.91 4.84,1.50 4.65,2.08 4.34,2.61 4.02,3.14 3.58,3.57 3.15,4.01 2.62,4.33 2.10,4.65 1.51,4.83 0.92,5.02 0.31,5.05 -0.30,5.09 -0.90,4.98 -1.51,4.87 -2.07,4.62 -2.63,4.37 -3.12,3.99 -3.60,3.61 -3.98,3.13 -4.36,2.64 -4.62,2.08 -4.87,1.52 -4.98,0.92 -5.09,0.31 -5.06,-0.29 -5.02,-0.91 -5.02,-0.91 L -5.02,-0.91 Z"></path></g><g transform="translate(77.40899658203125 31.044189453125) rotate(0 2.2109375 26.452972412109375)" stroke="none"><path fill="#ffffff" d="M 5.27,0 Q 5.27,0 5.34,1.98 5.40,3.97 5.54,6.17 5.67,8.36 6.20,10.57 6.74,12.77 6.90,15.71 7.07,18.65 7.17,20.83 7.27,23.00 7.39,25.55 7.51,28.10 7.94,30.48 8.37,32.86 8.78,35.14 9.20,37.41 9.69,39.75 10.19,42.10 10.63,44.36 11.07,46.62 11.20,49.27 11.33,51.93 11.34,52.08 11.34,52.24 11.24,53.11 11.14,53.98 10.83,54.80 10.52,55.62 10.02,56.35 9.53,57.07 8.87,57.66 8.22,58.24 7.44,58.65 6.67,59.06 5.82,59.27 4.97,59.49 4.09,59.49 3.21,59.49 2.36,59.29 1.51,59.08 0.73,58.67 -0.04,58.27 -0.70,57.69 -1.36,57.11 -1.86,56.39 -2.36,55.67 -2.67,54.85 -2.99,54.03 -3.10,53.16 -3.21,52.29 -3.19,49.82 -3.17,47.34 -3.16,45.04 -3.15,42.74 -3.10,39.86 -3.04,36.97 -3.25,33.90 -3.45,30.83 -3.48,27.39 -3.50,23.96 -3.51,21.60 -3.52,19.24 -4.05,15.79 -4.59,12.35 -4.82,9.75 -5.05,7.16 -5.73,4.79 -6.40,2.41 -6.52,2.23 -6.64,2.05 -6.78,1.23 -6.91,0.41 -6.84,-0.40 -6.77,-1.23 -6.50,-2.02 -6.24,-2.80 -5.79,-3.50 -5.35,-4.20 -4.75,-4.77 -4.15,-5.35 -3.43,-5.76 -2.71,-6.17 -1.91,-6.40 -1.12,-6.63 -0.29,-6.66 0.53,-6.69 1.34,-6.52 2.15,-6.35 2.90,-6.00 3.65,-5.64 4.29,-5.11 4.93,-4.59 5.43,-3.92 5.93,-3.26 6.25,-2.49 6.57,-1.73 7.37,1.35 8.17,4.45 8.81,6.53 9.45,8.61 9.98,10.77 10.51,12.93 11.00,15.31 11.49,17.69 11.60,19.81 11.70,21.93 11.75,24.33 11.80,26.72 11.84,29.44 11.87,32.16 11.89,34.45 11.90,36.74 11.94,39.21 11.97,41.67 12.00,43.88 12.02,46.10 12.05,49.66 12.07,53.23 11.87,54.44 11.68,55.64 11.10,56.72 10.53,57.80 9.65,58.64 8.76,59.48 7.65,59.99 6.55,60.50 5.33,60.63 4.12,60.76 2.93,60.50 1.73,60.24 0.69,59.61 -0.35,58.98 -1.14,58.05 -1.93,57.12 -2.38,55.99 -2.83,54.85 -2.90,53.63 -2.96,52.42 -2.63,51.24 -2.31,50.06 -1.62,49.05 -0.94,48.04 0.02,47.31 1.00,46.57 2.15,46.18 3.31,45.79 4.53,45.79 5.75,45.79 6.91,46.18 8.06,46.57 9.03,47.31 10.00,48.05 10.69,49.06 11.37,50.07 11.70,51.24 12.03,52.42 11.96,53.64 11.89,54.86 11.44,55.99 10.99,57.12 10.20,58.05 9.41,58.98 8.36,59.61 7.32,60.24 6.13,60.50 4.93,60.76 3.72,60.63 2.51,60.50 1.40,59.99 0.29,59.47 -0.58,58.64 -1.47,57.80 -2.04,56.72 -2.61,55.64 -2.81,54.43 -3.01,53.23 -3.01,53.23 -3.01,53.23 -2.99,50.71 -2.98,48.18 -2.95,45.78 -2.93,43.38 -2.89,41.05 -2.86,38.72 -2.84,36.23 -2.82,33.75 -2.79,30.84 -2.75,27.93 -2.71,25.32 -2.67,22.71 -2.79,20.39 -2.90,18.08 -3.30,15.60 -3.70,13.12 -4.48,10.56 -5.25,8.00 -5.95,5.02 -6.64,2.05 -6.78,1.23 -6.91,0.41 -6.84,-0.40 -6.77,-1.23 -6.50,-2.01 -6.24,-2.80 -5.79,-3.50 -5.35,-4.20 -4.75,-4.77 -4.15,-5.35 -3.43,-5.76 -2.71,-6.17 -1.91,-6.40 -1.12,-6.63 -0.29,-6.66 0.53,-6.69 1.34,-6.52 2.15,-6.35 2.90,-6.00 3.65,-5.64 4.29,-5.11 4.93,-4.59 5.43,-3.92 5.93,-3.26 6.25,-2.49 6.57,-1.73 6.30,-2.17 6.02,-2.61 7.09,0.32 8.16,3.27 8.13,5.55 8.10,7.84 8.25,10.58 8.41,13.32 8.93,16.09 9.45,18.87 9.56,21.09 9.68,23.31 9.95,25.79 10.21,28.28 10.70,32.62 11.18,36.97 11.24,39.86 11.29,42.75 11.30,45.05 11.31,47.34 11.32,49.79 11.34,52.24 11.24,53.11 11.14,53.98 10.83,54.80 10.52,55.62 10.02,56.35 9.53,57.07 8.87,57.65 8.22,58.24 7.44,58.65 6.67,59.06 5.82,59.27 4.97,59.49 4.09,59.49 3.21,59.49 2.36,59.29 1.51,59.08 0.73,58.67 -0.04,58.27 -0.70,57.69 -1.36,57.11 -1.86,56.39 -2.36,55.67 -2.67,54.85 -2.99,54.03 -3.10,53.16 -3.21,52.29 -3.09,50.73 -2.98,49.18 -3.43,46.78 -3.89,44.37 -4.14,42.18 -4.38,39.98 -4.76,37.11 -5.14,34.24 -5.51,31.17 -5.88,28.10 -5.76,25.55 -5.65,23.00 -5.55,20.85 -5.45,18.70 -5.34,16.06 -5.23,13.43 -5.45,10.95 -5.67,8.47 -5.54,6.22 -5.40,3.97 -5.34,1.98 -5.27,0 -5.20,-0.63 -5.12,-1.26 -4.90,-1.85 -4.67,-2.45 -4.31,-2.97 -3.95,-3.50 -3.47,-3.92 -2.99,-4.34 -2.43,-4.64 -1.87,-4.93 -1.25,-5.08 -0.63,-5.24 0.00,-5.24 0.63,-5.24 1.25,-5.08 1.87,-4.93 2.43,-4.64 2.99,-4.34 3.47,-3.92 3.95,-3.50 4.31,-2.97 4.67,-2.45 4.90,-1.85 5.12,-1.26 5.20,-0.63 5.27,0.00 5.27,0.00 L 5.27,0 Z"></path></g><g transform="translate(97.9788818359375 80.21231079101562) rotate(0 0.00004999999998744897 0.00004999999998744897)" stroke="none"><path fill="#ffffff" d="M 3.14,-3.14 Q 3.14,-3.14 3.55,-2.55 3.97,-1.97 4.18,-1.28 4.40,-0.59 4.38,0.11 4.36,0.83 4.11,1.51 3.86,2.18 3.41,2.74 2.96,3.30 2.36,3.69 1.75,4.08 1.05,4.25 0.36,4.42 -0.35,4.36 -1.07,4.31 -1.73,4.02 -2.39,3.74 -2.92,3.26 -3.46,2.78 -3.81,2.15 -4.16,1.53 -4.30,0.82 -4.43,0.11 -4.34,-0.59 -4.24,-1.30 -3.92,-1.94 -3.60,-2.59 -3.09,-3.09 -2.59,-3.60 -1.94,-3.92 -1.30,-4.24 -0.59,-4.34 0.12,-4.43 0.82,-4.30 1.53,-4.16 2.15,-3.81 2.78,-3.46 3.26,-2.92 3.74,-2.39 4.02,-1.73 4.31,-1.07 4.36,-0.35 4.42,0.36 4.25,1.05 4.07,1.75 3.69,2.36 3.30,2.96 2.74,3.41 2.18,3.86 1.51,4.11 0.83,4.36 0.11,4.38 -0.60,4.40 -1.28,4.18 -1.97,3.97 -2.55,3.55 -3.14,3.13 -3.14,3.14 -3.14,3.14 -3.47,2.71 -3.80,2.29 -4.02,1.80 -4.24,1.32 -4.33,0.79 -4.43,0.26 -4.40,-0.26 -4.36,-0.80 -4.20,-1.31 -4.04,-1.82 -3.77,-2.28 -3.49,-2.73 -3.11,-3.11 -2.73,-3.49 -2.28,-3.77 -1.82,-4.05 -1.31,-4.20 -0.80,-4.36 -0.26,-4.40 0.26,-4.43 0.79,-4.33 1.32,-4.24 1.80,-4.02 2.29,-3.80 2.71,-3.47 3.14,-3.14 3.14,-3.14 L 3.14,-3.14 Z"></path></g></svg>